<?xml version="1.0" standalone="no"?><!DOCTYPE svg PUBLIC "-//W3C//DTD SVG 1.1//EN" "http://www.w3.org/Graphics/SVG/1.1/DTD/svg11.dtd"><svg t="1552274846043" class="icon" style="" viewBox="0 0 1024 1024" version="1.1" xmlns="http://www.w3.org/2000/svg" p-id="7228" xmlns:xlink="http://www.w3.org/1999/xlink" width="80" height="80"><defs><style type="text/css"></style></defs><path d="M896 1024 128 1024c-70.4 0-128-57.6-128-128L0 128c0-70.4 57.6-128 128-128l768 0c70.4 0 128 57.6 128 128l0 768C1024 966.4 966.4 1024 896 1024zM128 64C89.6 64 64 89.6 64 128l0 768c0 38.4 25.6 64 64 64l768 0c38.4 0 64-25.6 64-64L960 128c0-38.4-25.6-64-64-64L128 64z" p-id="7229" fill="#bfbfbf"></path><path d="M768 544 256 544C236.8 544 224 531.2 224 512S236.8 480 256 480l512 0c19.2 0 32 12.8 32 32S787.2 544 768 544z" p-id="7230" fill="#bfbfbf"></path><path d="M512 800c-19.2 0-32-12.8-32-32L480 256c0-19.2 12.8-32 32-32S544 236.8 544 256l0 512C544 787.2 531.2 800 512 800z" p-id="7231" fill="#bfbfbf"></path></svg>