<?xml version="1.0" standalone="no"?><!DOCTYPE svg PUBLIC "-//W3C//DTD SVG 1.1//EN" "http://www.w3.org/Graphics/SVG/1.1/DTD/svg11.dtd"><svg t="1555919380325" class="icon" style="" viewBox="0 0 1024 1024" version="1.1" xmlns="http://www.w3.org/2000/svg" p-id="1979" xmlns:xlink="http://www.w3.org/1999/xlink" width="32" height="32"><defs><style type="text/css"></style></defs><path d="M511.8 925.6c-55.9 0-110.1-10.9-161.1-32.5-49.3-20.8-93.5-50.7-131.5-88.7s-67.8-82.2-88.7-131.5C108.9 621.9 98 567.7 98 511.8s10.9-110.1 32.5-161.1c20.8-49.3 50.7-93.5 88.7-131.5s82.2-67.8 131.5-88.7C401.8 108.9 456 98 511.8 98s110.1 10.9 161.1 32.5c49.3 20.8 93.5 50.7 131.5 88.7s67.8 82.2 88.7 131.5c21.6 51 32.5 105.2 32.5 161.1 0 55.9-10.9 110.1-32.5 161.1-20.8 49.3-50.7 93.5-88.7 131.5s-82.2 67.8-131.5 88.7c-51 21.6-105.2 32.5-161.1 32.5z m0-767.6C316.7 158 158 316.7 158 511.8c0 195.1 158.7 353.8 353.8 353.8 195.1 0 353.8-158.7 353.8-353.8 0-195.1-158.7-353.8-353.8-353.8z" fill="#d81e06" p-id="1980"></path><path d="M307.5 310.8c11.7-11.7 30.8-11.7 42.4 0l364.3 364.3c11.7 11.7 11.7 30.8 0 42.4-11.7 11.7-30.8 11.7-42.4 0L307.5 353.2c-11.6-11.6-11.6-30.7 0-42.4z" fill="#d81e06" p-id="1981"></path><path d="M716.3 312.8c-11.7-11.7-30.8-11.7-42.4 0L309.5 677.1c-11.7 11.7-11.7 30.8 0 42.4 11.7 11.7 30.8 11.7 42.4 0l364.3-364.3c11.7-11.6 11.7-30.7 0.1-42.4z" fill="#d81e06" p-id="1982"></path></svg>