<?xml version="1.0" standalone="no"?><!DOCTYPE svg PUBLIC "-//W3C//DTD SVG 1.1//EN" "http://www.w3.org/Graphics/SVG/1.1/DTD/svg11.dtd"><svg t="1551749776880" class="icon" style="" viewBox="0 0 1024 1024" version="1.1" xmlns="http://www.w3.org/2000/svg" p-id="2370" xmlns:xlink="http://www.w3.org/1999/xlink" width="24" height="24"><defs><style type="text/css"></style></defs><path d="M511.1 512.9l1.8-1.8-1.8 1.8z" fill="#cdcdcd" p-id="2371"></path><path d="M510.9 510.9l2.2 2.2c-0.7-0.8-1.4-1.5-2.2-2.2z" fill="#cdcdcd" p-id="2372"></path><path d="M512.1 648.1c8.3 0 15.8-3.1 21.5-8.3l2.2-2.2 21.5-21.5L743 430.4c12.4-12.4 12.4-32.8 0-45.3-12.4-12.4-32.8-12.4-45.3 0L512 570.9 326.2 385.2c-12.4-12.4-32.8-12.4-45.3 0-12.4 12.4-12.4 32.8 0.1 45.2l185.7 185.7 21.8 21.8 1.8 1.8c5.7 5.3 13.4 8.5 21.8 8.4z" fill="#cdcdcd" p-id="2373"></path><path d="M512.9 511.1l-1.8 1.8 1.8-1.8z" fill="#cdcdcd" p-id="2374"></path><path d="M513.1 513.1l-2.2-2.2c0.7 0.8 1.4 1.5 2.2 2.2z" fill="#cdcdcd" p-id="2375"></path></svg>