<?xml version="1.0" standalone="no"?><!DOCTYPE svg PUBLIC "-//W3C//DTD SVG 1.1//EN" "http://www.w3.org/Graphics/SVG/1.1/DTD/svg11.dtd"><svg t="1551749691621" class="icon" style="" viewBox="0 0 1024 1024" version="1.1" xmlns="http://www.w3.org/2000/svg" p-id="1698" xmlns:xlink="http://www.w3.org/1999/xlink" width="24" height="24"><defs><style type="text/css"></style></defs><path d="M512.9 512.9l-1.8-1.8 1.8 1.8zM513.1 510.9l-2.2 2.2c0.8-0.7 1.5-1.4 2.2-2.2z" fill="#cdcdcd" p-id="1699"></path><path d="M490.3 384.3l-1.8 1.8-21.8 21.8L281 593.6c-12.5 12.4-12.5 32.8-0.1 45.2 12.5 12.4 32.9 12.4 45.3 0L512 453.1l185.7 185.8c12.5 12.4 32.9 12.4 45.3 0 12.4-12.5 12.4-32.9 0-45.3L557.3 407.9l-21.5-21.5-2.2-2.2c-5.7-5.2-13.2-8.3-21.5-8.3-8.4-0.1-16.1 3.1-21.8 8.4z" fill="#cdcdcd" p-id="1700"></path><path d="M511.1 511.1l1.8 1.8-1.8-1.8zM510.9 513.1l2.2-2.2c-0.8 0.7-1.5 1.4-2.2 2.2z" fill="#cdcdcd" p-id="1701"></path></svg>